<?xml version="1.0" encoding="utf-8" standalone="no"?>
<!DOCTYPE svg PUBLIC "-//W3C//DTD SVG 1.1//EN"
  "http://www.w3.org/Graphics/SVG/1.1/DTD/svg11.dtd">
<svg xmlns:xlink="http://www.w3.org/1999/xlink" width="936pt" height="331.2pt" viewBox="0 0 936 331.2" xmlns="http://www.w3.org/2000/svg" version="1.1">
 <metadata>
  <rdf:RDF xmlns:dc="http://purl.org/dc/elements/1.1/" xmlns:cc="http://creativecommons.org/ns#" xmlns:rdf="http://www.w3.org/1999/02/22-rdf-syntax-ns#">
   <cc:Work>
    <dc:type rdf:resource="http://purl.org/dc/dcmitype/StillImage"/>
    <dc:date>2026-06-26T14:52:53.926524</dc:date>
    <dc:format>image/svg+xml</dc:format>
    <dc:creator>
     <cc:Agent>
      <dc:title>Matplotlib v3.11.0, https://matplotlib.org/</dc:title>
     </cc:Agent>
    </dc:creator>
   </cc:Work>
  </rdf:RDF>
 </metadata>
 <defs>
  <style type="text/css">*{stroke-linejoin: round; stroke-linecap: butt}</style>
 </defs>
 <g id="figure_1">
  <g id="patch_1">
   <path d="M 0 331.2 
L 936 331.2 
L 936 0 
L 0 0 
z
" style="fill: #ffffff"/>
  </g>
  <g id="axes_1">
   <g id="patch_2">
    <path d="M 45.082344 289.077656 
L 475.355894 289.077656 
L 475.355894 66.329422 
L 45.082344 66.329422 
z
" style="fill: #ffffff"/>
   </g>
   <g id="patch_3">
    <path d="M 64.640232 267.781311 
L 67.696153 267.781311 
L 67.696153 266.6267 
L 64.640232 266.6267 
z
" clip-path="url(#paf1ce140cb)" style="fill: #4c78a8"/>
   </g>
   <g id="patch_4">
    <path d="M 67.696153 267.781311 
L 70.752073 267.781311 
L 70.752073 267.515852 
L 67.696153 267.515852 
z
" clip-path="url(#paf1ce140cb)" style="fill: #4c78a8"/>
   </g>
   <g id="patch_5">
    <path d="M 70.752073 267.781311 
L 73.807993 267.781311 
L 73.807993 269.59957 
L 70.752073 269.59957 
z
" clip-path="url(#paf1ce140cb)" style="fill: #4c78a8"/>
   </g>
   <g id="patch_6">
    <path d="M 73.807993 267.781311 
L 76.863913 267.781311 
L 76.863913 271.771793 
L 73.807993 271.771793 
z
" clip-path="url(#paf1ce140cb)" style="fill: #4c78a8"/>
   </g>
   <g id="patch_7">
    <path d="M 76.863913 267.781311 
L 79.919833 267.781311 
L 79.919833 275.162684 
L 76.863913 275.162684 
z
" clip-path="url(#paf1ce140cb)" style="fill: #4c78a8"/>
   </g>
   <g id="patch_8">
    <path d="M 79.919833 267.781311 
L 82.975753 267.781311 
L 82.975753 279.350024 
L 79.919833 279.350024 
z
" clip-path="url(#paf1ce140cb)" style="fill: #4c78a8"/>
   </g>
   <g id="patch_9">
    <path d="M 82.975753 267.781311 
L 86.031673 267.781311 
L 86.031673 282.668129 
L 82.975753 282.668129 
z
" clip-path="url(#paf1ce140cb)" style="fill: #4c78a8"/>
   </g>
   <g id="patch_10">
    <path d="M 86.031673 267.781311 
L 89.087593 267.781311 
L 89.087593 283.929869 
L 86.031673 283.929869 
z
" clip-path="url(#paf1ce140cb)" style="fill: #4c78a8"/>
   </g>
   <g id="patch_11">
    <path d="M 89.087593 267.781311 
L 92.143513 267.781311 
L 92.143513 280.184567 
L 89.087593 280.184567 
z
" clip-path="url(#paf1ce140cb)" style="fill: #4c78a8"/>
   </g>
   <g id="patch_12">
    <path d="M 92.143513 267.781311 
L 95.199433 267.781311 
L 95.199433 272.554905 
L 92.143513 272.554905 
z
" clip-path="url(#paf1ce140cb)" style="fill: #4c78a8"/>
   </g>
   <g id="patch_13">
    <path d="M 95.199433 267.781311 
L 98.255354 267.781311 
L 98.255354 266.699262 
L 95.199433 266.699262 
z
" clip-path="url(#paf1ce140cb)" style="fill: #4c78a8"/>
   </g>
   <g id="patch_14">
    <path d="M 98.255354 267.781311 
L 101.311274 267.781311 
L 101.311274 268.610087 
L 98.255354 268.610087 
z
" clip-path="url(#paf1ce140cb)" style="fill: #4c78a8"/>
   </g>
   <g id="patch_15">
    <path d="M 101.311274 267.781311 
L 104.367194 267.781311 
L 104.367194 271.636746 
L 101.311274 271.636746 
z
" clip-path="url(#paf1ce140cb)" style="fill: #4c78a8"/>
   </g>
   <g id="patch_16">
    <path d="M 104.367194 267.781311 
L 107.423114 267.781311 
L 107.423114 271.662287 
L 104.367194 271.662287 
z
" clip-path="url(#paf1ce140cb)" style="fill: #4c78a8"/>
   </g>
   <g id="patch_17">
    <path d="M 107.423114 267.781311 
L 110.479034 267.781311 
L 110.479034 272.414397 
L 107.423114 272.414397 
z
" clip-path="url(#paf1ce140cb)" style="fill: #4c78a8"/>
   </g>
   <g id="patch_18">
    <path d="M 110.479034 267.781311 
L 113.534954 267.781311 
L 113.534954 274.364462 
L 110.479034 274.364462 
z
" clip-path="url(#paf1ce140cb)" style="fill: #4c78a8"/>
   </g>
   <g id="patch_19">
    <path d="M 113.534954 267.781311 
L 116.590874 267.781311 
L 116.590874 261.078191 
L 113.534954 261.078191 
z
" clip-path="url(#paf1ce140cb)" style="fill: #4c78a8"/>
   </g>
   <g id="patch_20">
    <path d="M 116.590874 267.781311 
L 119.646794 267.781311 
L 119.646794 264.010121 
L 116.590874 264.010121 
z
" clip-path="url(#paf1ce140cb)" style="fill: #4c78a8"/>
   </g>
   <g id="patch_21">
    <path d="M 119.646794 267.781311 
L 122.702714 267.781311 
L 122.702714 266.609574 
L 119.646794 266.609574 
z
" clip-path="url(#paf1ce140cb)" style="fill: #4c78a8"/>
   </g>
   <g id="patch_22">
    <path d="M 122.702714 267.781311 
L 125.758634 267.781311 
L 125.758634 269.197565 
L 122.702714 269.197565 
z
" clip-path="url(#paf1ce140cb)" style="fill: #4c78a8"/>
   </g>
   <g id="patch_23">
    <path d="M 125.758634 267.781311 
L 128.814555 267.781311 
L 128.814555 271.202832 
L 125.758634 271.202832 
z
" clip-path="url(#paf1ce140cb)" style="fill: #4c78a8"/>
   </g>
   <g id="patch_24">
    <path d="M 128.814555 267.781311 
L 131.870475 267.781311 
L 131.870475 272.574473 
L 128.814555 272.574473 
z
" clip-path="url(#paf1ce140cb)" style="fill: #4c78a8"/>
   </g>
   <g id="patch_25">
    <path d="M 131.870475 267.781311 
L 134.926395 267.781311 
L 134.926395 272.82766 
L 131.870475 272.82766 
z
" clip-path="url(#paf1ce140cb)" style="fill: #4c78a8"/>
   </g>
   <g id="patch_26">
    <path d="M 134.926395 267.781311 
L 137.982315 267.781311 
L 137.982315 271.531232 
L 134.926395 271.531232 
z
" clip-path="url(#paf1ce140cb)" style="fill: #4c78a8"/>
   </g>
   <g id="patch_27">
    <path d="M 137.982315 267.781311 
L 141.038235 267.781311 
L 141.038235 268.208154 
L 137.982315 268.208154 
z
" clip-path="url(#paf1ce140cb)" style="fill: #4c78a8"/>
   </g>
   <g id="patch_28">
    <path d="M 141.038235 267.781311 
L 144.094155 267.781311 
L 144.094155 268.247314 
L 141.038235 268.247314 
z
" clip-path="url(#paf1ce140cb)" style="fill: #4c78a8"/>
   </g>
   <g id="patch_29">
    <path d="M 144.094155 267.781311 
L 147.150075 267.781311 
L 147.150075 268.200408 
L 144.094155 268.200408 
z
" clip-path="url(#paf1ce140cb)" style="fill: #4c78a8"/>
   </g>
   <g id="patch_30">
    <path d="M 147.150075 267.781311 
L 150.205995 267.781311 
L 150.205995 268.211956 
L 147.150075 268.211956 
z
" clip-path="url(#paf1ce140cb)" style="fill: #4c78a8"/>
   </g>
   <g id="patch_31">
    <path d="M 150.205995 267.781311 
L 153.261915 267.781311 
L 153.261915 268.20115 
L 150.205995 268.20115 
z
" clip-path="url(#paf1ce140cb)" style="fill: #4c78a8"/>
   </g>
   <g id="patch_32">
    <path d="M 153.261915 267.781311 
L 156.317835 267.781311 
L 156.317835 266.235421 
L 153.261915 266.235421 
z
" clip-path="url(#paf1ce140cb)" style="fill: #4c78a8"/>
   </g>
   <g id="patch_33">
    <path d="M 156.317835 267.781311 
L 159.373756 267.781311 
L 159.373756 266.080825 
L 156.317835 266.080825 
z
" clip-path="url(#paf1ce140cb)" style="fill: #4c78a8"/>
   </g>
   <g id="patch_34">
    <path d="M 159.373756 267.781311 
L 162.429676 267.781311 
L 162.429676 266.174997 
L 159.373756 266.174997 
z
" clip-path="url(#paf1ce140cb)" style="fill: #4c78a8"/>
   </g>
   <g id="patch_35">
    <path d="M 162.429676 267.781311 
L 165.485596 267.781311 
L 165.485596 287.141625 
L 162.429676 287.141625 
z
" clip-path="url(#paf1ce140cb)" style="fill: #4c78a8"/>
   </g>
   <g id="patch_36">
    <path d="M 165.485596 267.781311 
L 168.541516 267.781311 
L 168.541516 285.92188 
L 165.485596 285.92188 
z
" clip-path="url(#paf1ce140cb)" style="fill: #4c78a8"/>
   </g>
   <g id="patch_37">
    <path d="M 168.541516 267.781311 
L 171.597436 267.781311 
L 171.597436 282.476816 
L 168.541516 282.476816 
z
" clip-path="url(#paf1ce140cb)" style="fill: #4c78a8"/>
   </g>
   <g id="patch_38">
    <path d="M 171.597436 267.781311 
L 174.653356 267.781311 
L 174.653356 278.976198 
L 171.597436 278.976198 
z
" clip-path="url(#paf1ce140cb)" style="fill: #4c78a8"/>
   </g>
   <g id="patch_39">
    <path d="M 174.653356 267.781311 
L 177.709276 267.781311 
L 177.709276 277.252923 
L 174.653356 277.252923 
z
" clip-path="url(#paf1ce140cb)" style="fill: #4c78a8"/>
   </g>
   <g id="patch_40">
    <path d="M 177.709276 267.781311 
L 180.765196 267.781311 
L 180.765196 275.847539 
L 177.709276 275.847539 
z
" clip-path="url(#paf1ce140cb)" style="fill: #4c78a8"/>
   </g>
   <g id="patch_41">
    <path d="M 180.765196 267.781311 
L 183.821116 267.781311 
L 183.821116 274.881886 
L 180.765196 274.881886 
z
" clip-path="url(#paf1ce140cb)" style="fill: #4c78a8"/>
   </g>
   <g id="patch_42">
    <path d="M 183.821116 267.781311 
L 186.877037 267.781311 
L 186.877037 274.687549 
L 183.821116 274.687549 
z
" clip-path="url(#paf1ce140cb)" style="fill: #4c78a8"/>
   </g>
   <g id="patch_43">
    <path d="M 186.877037 267.781311 
L 189.932957 267.781311 
L 189.932957 275.197481 
L 186.877037 275.197481 
z
" clip-path="url(#paf1ce140cb)" style="fill: #4c78a8"/>
   </g>
   <g id="patch_44">
    <path d="M 189.932957 267.781311 
L 192.988877 267.781311 
L 192.988877 275.715219 
L 189.932957 275.715219 
z
" clip-path="url(#paf1ce140cb)" style="fill: #4c78a8"/>
   </g>
   <g id="patch_45">
    <path d="M 192.988877 267.781311 
L 196.044797 267.781311 
L 196.044797 276.179533 
L 192.988877 276.179533 
z
" clip-path="url(#paf1ce140cb)" style="fill: #4c78a8"/>
   </g>
   <g id="patch_46">
    <path d="M 196.044797 267.781311 
L 199.100717 267.781311 
L 199.100717 276.529731 
L 196.044797 276.529731 
z
" clip-path="url(#paf1ce140cb)" style="fill: #4c78a8"/>
   </g>
   <g id="patch_47">
    <path d="M 199.100717 267.781311 
L 202.156637 267.781311 
L 202.156637 276.115681 
L 199.100717 276.115681 
z
" clip-path="url(#paf1ce140cb)" style="fill: #4c78a8"/>
   </g>
   <g id="patch_48">
    <path d="M 202.156637 267.781311 
L 205.212557 267.781311 
L 205.212557 272.050276 
L 202.156637 272.050276 
z
" clip-path="url(#paf1ce140cb)" style="fill: #4c78a8"/>
   </g>
   <g id="patch_49">
    <path d="M 205.212557 267.781311 
L 208.268477 267.781311 
L 208.268477 265.866951 
L 205.212557 265.866951 
z
" clip-path="url(#paf1ce140cb)" style="fill: #4c78a8"/>
   </g>
   <g id="patch_50">
    <path d="M 208.268477 267.781311 
L 211.324397 267.781311 
L 211.324397 262.28149 
L 208.268477 262.28149 
z
" clip-path="url(#paf1ce140cb)" style="fill: #4c78a8"/>
   </g>
   <g id="patch_51">
    <path d="M 211.324397 267.781311 
L 214.380317 267.781311 
L 214.380317 259.547793 
L 211.324397 259.547793 
z
" clip-path="url(#paf1ce140cb)" style="fill: #4c78a8"/>
   </g>
   <g id="patch_52">
    <path d="M 214.380317 267.781311 
L 217.436238 267.781311 
L 217.436238 259.132846 
L 214.380317 259.132846 
z
" clip-path="url(#paf1ce140cb)" style="fill: #4c78a8"/>
   </g>
   <g id="patch_53">
    <path d="M 217.436238 267.781311 
L 220.492158 267.781311 
L 220.492158 259.456748 
L 217.436238 259.456748 
z
" clip-path="url(#paf1ce140cb)" style="fill: #4c78a8"/>
   </g>
   <g id="patch_54">
    <path d="M 220.492158 267.781311 
L 223.548078 267.781311 
L 223.548078 260.661662 
L 220.492158 260.661662 
z
" clip-path="url(#paf1ce140cb)" style="fill: #4c78a8"/>
   </g>
   <g id="patch_55">
    <path d="M 223.548078 267.781311 
L 226.603998 267.781311 
L 226.603998 262.044296 
L 223.548078 262.044296 
z
" clip-path="url(#paf1ce140cb)" style="fill: #4c78a8"/>
   </g>
   <g id="patch_56">
    <path d="M 226.603998 267.781311 
L 229.659918 267.781311 
L 229.659918 263.912191 
L 226.603998 263.912191 
z
" clip-path="url(#paf1ce140cb)" style="fill: #4c78a8"/>
   </g>
   <g id="patch_57">
    <path d="M 229.659918 267.781311 
L 232.715838 267.781311 
L 232.715838 265.644272 
L 229.659918 265.644272 
z
" clip-path="url(#paf1ce140cb)" style="fill: #4c78a8"/>
   </g>
   <g id="patch_58">
    <path d="M 232.715838 267.781311 
L 235.771758 267.781311 
L 235.771758 267.349753 
L 232.715838 267.349753 
z
" clip-path="url(#paf1ce140cb)" style="fill: #4c78a8"/>
   </g>
   <g id="patch_59">
    <path d="M 235.771758 267.781311 
L 238.827678 267.781311 
L 238.827678 268.724055 
L 235.771758 268.724055 
z
" clip-path="url(#paf1ce140cb)" style="fill: #4c78a8"/>
   </g>
   <g id="patch_60">
    <path d="M 238.827678 267.781311 
L 241.883598 267.781311 
L 241.883598 270.01924 
L 238.827678 270.01924 
z
" clip-path="url(#paf1ce140cb)" style="fill: #4c78a8"/>
   </g>
   <g id="patch_61">
    <path d="M 241.883598 267.781311 
L 244.939518 267.781311 
L 244.939518 271.171887 
L 241.883598 271.171887 
z
" clip-path="url(#paf1ce140cb)" style="fill: #4c78a8"/>
   </g>
   <g id="patch_62">
    <path d="M 244.939518 267.781311 
L 247.995439 267.781311 
L 247.995439 272.257939 
L 244.939518 272.257939 
z
" clip-path="url(#paf1ce140cb)" style="fill: #4c78a8"/>
   </g>
   <g id="patch_63">
    <path d="M 247.995439 267.781311 
L 251.051359 267.781311 
L 251.051359 274.220372 
L 247.995439 274.220372 
z
" clip-path="url(#paf1ce140cb)" style="fill: #4c78a8"/>
   </g>
   <g id="patch_64">
    <path d="M 251.051359 267.781311 
L 254.107279 267.781311 
L 254.107279 277.291986 
L 251.051359 277.291986 
z
" clip-path="url(#paf1ce140cb)" style="fill: #4c78a8"/>
   </g>
   <g id="patch_65">
    <path d="M 254.107279 267.781311 
L 257.163199 267.781311 
L 257.163199 283.277948 
L 254.107279 283.277948 
z
" clip-path="url(#paf1ce140cb)" style="fill: #4c78a8"/>
   </g>
   <g id="patch_66">
    <path d="M 257.163199 267.781311 
L 260.219119 267.781311 
L 260.219119 283.214214 
L 257.163199 283.214214 
z
" clip-path="url(#paf1ce140cb)" style="fill: #4c78a8"/>
   </g>
   <g id="patch_67">
    <path d="M 260.219119 267.781311 
L 263.275039 267.781311 
L 263.275039 283.201848 
L 260.219119 283.201848 
z
" clip-path="url(#paf1ce140cb)" style="fill: #4c78a8"/>
   </g>
   <g id="patch_68">
    <path d="M 263.275039 267.781311 
L 266.330959 267.781311 
L 266.330959 286.089978 
L 263.275039 286.089978 
z
" clip-path="url(#paf1ce140cb)" style="fill: #4c78a8"/>
   </g>
   <g id="patch_69">
    <path d="M 266.330959 267.781311 
L 269.386879 267.781311 
L 269.386879 285.462161 
L 266.330959 285.462161 
z
" clip-path="url(#paf1ce140cb)" style="fill: #4c78a8"/>
   </g>
   <g id="patch_70">
    <path d="M 269.386879 267.781311 
L 272.442799 267.781311 
L 272.442799 282.907195 
L 269.386879 282.907195 
z
" clip-path="url(#paf1ce140cb)" style="fill: #4c78a8"/>
   </g>
   <g id="patch_71">
    <path d="M 272.442799 267.781311 
L 275.49872 267.781311 
L 275.49872 272.287347 
L 272.442799 272.287347 
z
" clip-path="url(#paf1ce140cb)" style="fill: #4c78a8"/>
   </g>
   <g id="patch_72">
    <path d="M 275.49872 267.781311 
L 278.55464 267.781311 
L 278.55464 269.32478 
L 275.49872 269.32478 
z
" clip-path="url(#paf1ce140cb)" style="fill: #4c78a8"/>
   </g>
   <g id="patch_73">
    <path d="M 278.55464 267.781311 
L 281.61056 267.781311 
L 281.61056 269.280533 
L 278.55464 269.280533 
z
" clip-path="url(#paf1ce140cb)" style="fill: #4c78a8"/>
   </g>
   <g id="patch_74">
    <path d="M 281.61056 267.781311 
L 284.66648 267.781311 
L 284.66648 270.30806 
L 281.61056 270.30806 
z
" clip-path="url(#paf1ce140cb)" style="fill: #4c78a8"/>
   </g>
   <g id="patch_75">
    <path d="M 284.66648 267.781311 
L 287.7224 267.781311 
L 287.7224 277.278596 
L 284.66648 277.278596 
z
" clip-path="url(#paf1ce140cb)" style="fill: #4c78a8"/>
   </g>
   <g id="patch_76">
    <path d="M 287.7224 267.781311 
L 290.77832 267.781311 
L 290.77832 270.988782 
L 287.7224 270.988782 
z
" clip-path="url(#paf1ce140cb)" style="fill: #4c78a8"/>
   </g>
   <g id="patch_77">
    <path d="M 290.77832 267.781311 
L 293.83424 267.781311 
L 293.83424 269.24379 
L 290.77832 269.24379 
z
" clip-path="url(#paf1ce140cb)" style="fill: #4c78a8"/>
   </g>
   <g id="patch_78">
    <path d="M 293.83424 267.781311 
L 296.89016 267.781311 
L 296.89016 268.741274 
L 293.83424 268.741274 
z
" clip-path="url(#paf1ce140cb)" style="fill: #4c78a8"/>
   </g>
   <g id="patch_79">
    <path d="M 296.89016 267.781311 
L 299.94608 267.781311 
L 299.94608 270.665268 
L 296.89016 270.665268 
z
" clip-path="url(#paf1ce140cb)" style="fill: #4c78a8"/>
   </g>
   <g id="patch_80">
    <path d="M 299.94608 267.781311 
L 303.002 267.781311 
L 303.002 278.391421 
L 299.94608 278.391421 
z
" clip-path="url(#paf1ce140cb)" style="fill: #4c78a8"/>
   </g>
   <g id="patch_81">
    <path d="M 303.002 267.781311 
L 306.057921 267.781311 
L 306.057921 273.062168 
L 303.002 273.062168 
z
" clip-path="url(#paf1ce140cb)" style="fill: #4c78a8"/>
   </g>
   <g id="patch_82">
    <path d="M 306.057921 267.781311 
L 309.113841 267.781311 
L 309.113841 268.125422 
L 306.057921 268.125422 
z
" clip-path="url(#paf1ce140cb)" style="fill: #4c78a8"/>
   </g>
   <g id="patch_83">
    <path d="M 309.113841 267.781311 
L 312.169761 267.781311 
L 312.169761 264.919525 
L 309.113841 264.919525 
z
" clip-path="url(#paf1ce140cb)" style="fill: #4c78a8"/>
   </g>
   <g id="patch_84">
    <path d="M 312.169761 267.781311 
L 315.225681 267.781311 
L 315.225681 259.520365 
L 312.169761 259.520365 
z
" clip-path="url(#paf1ce140cb)" style="fill: #4c78a8"/>
   </g>
   <g id="patch_85">
    <path d="M 315.225681 267.781311 
L 318.281601 267.781311 
L 318.281601 260.313004 
L 315.225681 260.313004 
z
" clip-path="url(#paf1ce140cb)" style="fill: #4c78a8"/>
   </g>
   <g id="patch_86">
    <path d="M 318.281601 267.781311 
L 321.337521 267.781311 
L 321.337521 260.872694 
L 318.281601 260.872694 
z
" clip-path="url(#paf1ce140cb)" style="fill: #4c78a8"/>
   </g>
   <g id="patch_87">
    <path d="M 321.337521 267.781311 
L 324.393441 267.781311 
L 324.393441 261.391457 
L 321.337521 261.391457 
z
" clip-path="url(#paf1ce140cb)" style="fill: #4c78a8"/>
   </g>
   <g id="patch_88">
    <path d="M 324.393441 267.781311 
L 327.449361 267.781311 
L 327.449361 261.150881 
L 324.393441 261.150881 
z
" clip-path="url(#paf1ce140cb)" style="fill: #4c78a8"/>
   </g>
   <g id="patch_89">
    <path d="M 327.449361 267.781311 
L 330.505281 267.781311 
L 330.505281 262.204689 
L 327.449361 262.204689 
z
" clip-path="url(#paf1ce140cb)" style="fill: #4c78a8"/>
   </g>
   <g id="patch_90">
    <path d="M 330.505281 267.781311 
L 333.561201 267.781311 
L 333.561201 263.358506 
L 330.505281 263.358506 
z
" clip-path="url(#paf1ce140cb)" style="fill: #4c78a8"/>
   </g>
   <g id="patch_91">
    <path d="M 333.561201 267.781311 
L 336.617122 267.781311 
L 336.617122 266.494564 
L 333.561201 266.494564 
z
" clip-path="url(#paf1ce140cb)" style="fill: #4c78a8"/>
   </g>
   <g id="patch_92">
    <path d="M 336.617122 267.781311 
L 339.673042 267.781311 
L 339.673042 267.097086 
L 336.617122 267.097086 
z
" clip-path="url(#paf1ce140cb)" style="fill: #4c78a8"/>
   </g>
   <g id="patch_93">
    <path d="M 339.673042 267.781311 
L 342.728962 267.781311 
L 342.728962 267.894198 
L 339.673042 267.894198 
z
" clip-path="url(#paf1ce140cb)" style="fill: #4c78a8"/>
   </g>
   <g id="patch_94">
    <path d="M 342.728962 267.781311 
L 345.784882 267.781311 
L 345.784882 268.361647 
L 342.728962 268.361647 
z
" clip-path="url(#paf1ce140cb)" style="fill: #4c78a8"/>
   </g>
   <g id="patch_95">
    <path d="M 345.784882 267.781311 
L 348.840802 267.781311 
L 348.840802 267.877318 
L 345.784882 267.877318 
z
" clip-path="url(#paf1ce140cb)" style="fill: #4c78a8"/>
   </g>
   <g id="patch_96">
    <path d="M 348.840802 267.781311 
L 351.896722 267.781311 
L 351.896722 269.536322 
L 348.840802 269.536322 
z
" clip-path="url(#paf1ce140cb)" style="fill: #4c78a8"/>
   </g>
   <g id="patch_97">
    <path d="M 351.896722 267.781311 
L 354.952642 267.781311 
L 354.952642 274.265521 
L 351.896722 274.265521 
z
" clip-path="url(#paf1ce140cb)" style="fill: #4c78a8"/>
   </g>
   <g id="patch_98">
    <path d="M 354.952642 267.781311 
L 358.008562 267.781311 
L 358.008562 277.324038 
L 354.952642 277.324038 
z
" clip-path="url(#paf1ce140cb)" style="fill: #4c78a8"/>
   </g>
   <g id="patch_99">
    <path d="M 358.008562 267.781311 
L 361.064482 267.781311 
L 361.064482 264.137058 
L 358.008562 264.137058 
z
" clip-path="url(#paf1ce140cb)" style="fill: #4c78a8"/>
   </g>
   <g id="patch_100">
    <path d="M 361.064482 267.781311 
L 364.120402 267.781311 
L 364.120402 266.33306 
L 361.064482 266.33306 
z
" clip-path="url(#paf1ce140cb)" style="fill: #4c78a8"/>
   </g>
   <g id="patch_101">
    <path d="M 364.120402 267.781311 
L 367.176323 267.781311 
L 367.176323 269.062628 
L 364.120402 269.062628 
z
" clip-path="url(#paf1ce140cb)" style="fill: #4c78a8"/>
   </g>
   <g id="patch_102">
    <path d="M 367.176323 267.781311 
L 370.232243 267.781311 
L 370.232243 272.837668 
L 367.176323 272.837668 
z
" clip-path="url(#paf1ce140cb)" style="fill: #4c78a8"/>
   </g>
   <g id="patch_103">
    <path d="M 370.232243 267.781311 
L 373.288163 267.781311 
L 373.288163 275.403148 
L 370.232243 275.403148 
z
" clip-path="url(#paf1ce140cb)" style="fill: #4c78a8"/>
   </g>
   <g id="patch_104">
    <path d="M 373.288163 267.781311 
L 376.344083 267.781311 
L 376.344083 277.473172 
L 373.288163 277.473172 
z
" clip-path="url(#paf1ce140cb)" style="fill: #4c78a8"/>
   </g>
   <g id="patch_105">
    <path d="M 376.344083 267.781311 
L 379.400003 267.781311 
L 379.400003 278.861674 
L 376.344083 278.861674 
z
" clip-path="url(#paf1ce140cb)" style="fill: #4c78a8"/>
   </g>
   <g id="patch_106">
    <path d="M 379.400003 267.781311 
L 382.455923 267.781311 
L 382.455923 279.29101 
L 379.400003 279.29101 
z
" clip-path="url(#paf1ce140cb)" style="fill: #4c78a8"/>
   </g>
   <g id="patch_107">
    <path d="M 382.455923 267.781311 
L 385.511843 267.781311 
L 385.511843 279.477709 
L 382.455923 279.477709 
z
" clip-path="url(#paf1ce140cb)" style="fill: #4c78a8"/>
   </g>
   <g id="patch_108">
    <path d="M 385.511843 267.781311 
L 388.567763 267.781311 
L 388.567763 278.986884 
L 385.511843 278.986884 
z
" clip-path="url(#paf1ce140cb)" style="fill: #4c78a8"/>
   </g>
   <g id="patch_109">
    <path d="M 388.567763 267.781311 
L 391.623683 267.781311 
L 391.623683 278.061712 
L 388.567763 278.061712 
z
" clip-path="url(#paf1ce140cb)" style="fill: #4c78a8"/>
   </g>
   <g id="patch_110">
    <path d="M 391.623683 267.781311 
L 394.679604 267.781311 
L 394.679604 276.31536 
L 391.623683 276.31536 
z
" clip-path="url(#paf1ce140cb)" style="fill: #4c78a8"/>
   </g>
   <g id="patch_111">
    <path d="M 394.679604 267.781311 
L 397.735524 267.781311 
L 397.735524 273.450845 
L 394.679604 273.450845 
z
" clip-path="url(#paf1ce140cb)" style="fill: #4c78a8"/>
   </g>
   <g id="patch_112">
    <path d="M 397.735524 267.781311 
L 400.791444 267.781311 
L 400.791444 270.03353 
L 397.735524 270.03353 
z
" clip-path="url(#paf1ce140cb)" style="fill: #4c78a8"/>
   </g>
   <g id="patch_113">
    <path d="M 400.791444 267.781311 
L 403.847364 267.781311 
L 403.847364 267.123157 
L 400.791444 267.123157 
z
" clip-path="url(#paf1ce140cb)" style="fill: #4c78a8"/>
   </g>
   <g id="patch_114">
    <path d="M 403.847364 267.781311 
L 406.903284 267.781311 
L 406.903284 264.085316 
L 403.847364 264.085316 
z
" clip-path="url(#paf1ce140cb)" style="fill: #4c78a8"/>
   </g>
   <g id="patch_115">
    <path d="M 406.903284 267.781311 
L 409.959204 267.781311 
L 409.959204 257.248347 
L 406.903284 257.248347 
z
" clip-path="url(#paf1ce140cb)" style="fill: #4c78a8"/>
   </g>
   <g id="patch_116">
    <path d="M 409.959204 267.781311 
L 413.015124 267.781311 
L 413.015124 258.400036 
L 409.959204 258.400036 
z
" clip-path="url(#paf1ce140cb)" style="fill: #4c78a8"/>
   </g>
   <g id="patch_117">
    <path d="M 413.015124 267.781311 
L 416.071044 267.781311 
L 416.071044 262.267454 
L 413.015124 262.267454 
z
" clip-path="url(#paf1ce140cb)" style="fill: #4c78a8"/>
   </g>
   <g id="patch_118">
    <path d="M 416.071044 267.781311 
L 419.126964 267.781311 
L 419.126964 260.083677 
L 416.071044 260.083677 
z
" clip-path="url(#paf1ce140cb)" style="fill: #4c78a8"/>
   </g>
   <g id="patch_119">
    <path d="M 419.126964 267.781311 
L 422.182884 267.781311 
L 422.182884 260.494545 
L 419.126964 260.494545 
z
" clip-path="url(#paf1ce140cb)" style="fill: #4c78a8"/>
   </g>
   <g id="patch_120">
    <path d="M 422.182884 267.781311 
L 425.238805 267.781311 
L 425.238805 261.263666 
L 422.182884 261.263666 
z
" clip-path="url(#paf1ce140cb)" style="fill: #4c78a8"/>
   </g>
   <g id="patch_121">
    <path d="M 425.238805 267.781311 
L 428.294725 267.781311 
L 428.294725 262.071759 
L 425.238805 262.071759 
z
" clip-path="url(#paf1ce140cb)" style="fill: #4c78a8"/>
   </g>
   <g id="patch_122">
    <path d="M 428.294725 267.781311 
L 431.350645 267.781311 
L 431.350645 262.976451 
L 428.294725 262.976451 
z
" clip-path="url(#paf1ce140cb)" style="fill: #4c78a8"/>
   </g>
   <g id="patch_123">
    <path d="M 431.350645 267.781311 
L 434.406565 267.781311 
L 434.406565 263.355249 
L 431.350645 263.355249 
z
" clip-path="url(#paf1ce140cb)" style="fill: #4c78a8"/>
   </g>
   <g id="patch_124">
    <path d="M 434.406565 267.781311 
L 437.462485 267.781311 
L 437.462485 263.240416 
L 434.406565 263.240416 
z
" clip-path="url(#paf1ce140cb)" style="fill: #d62728"/>
   </g>
   <g id="patch_125">
    <path d="M 437.462485 267.781311 
L 440.518405 267.781311 
L 440.518405 261.620466 
L 437.462485 261.620466 
z
" clip-path="url(#paf1ce140cb)" style="fill: #4c78a8"/>
   </g>
   <g id="patch_126">
    <path d="M 440.518405 267.781311 
L 443.574325 267.781311 
L 443.574325 260.335493 
L 440.518405 260.335493 
z
" clip-path="url(#paf1ce140cb)" style="fill: #4c78a8"/>
   </g>
   <g id="patch_127">
    <path d="M 443.574325 267.781311 
L 446.630245 267.781311 
L 446.630245 260.117553 
L 443.574325 260.117553 
z
" clip-path="url(#paf1ce140cb)" style="fill: #4c78a8"/>
   </g>
   <g id="patch_128">
    <path d="M 446.630245 267.781311 
L 449.686165 267.781311 
L 449.686165 260.489692 
L 446.630245 260.489692 
z
" clip-path="url(#paf1ce140cb)" style="fill: #4c78a8"/>
   </g>
   <g id="patch_129">
    <path d="M 449.686165 267.781311 
L 452.742085 267.781311 
L 452.742085 260.919332 
L 449.686165 260.919332 
z
" clip-path="url(#paf1ce140cb)" style="fill: #4c78a8"/>
   </g>
   <g id="patch_130">
    <path d="M 452.742085 267.781311 
L 455.798006 267.781311 
L 455.798006 262.031426 
L 452.742085 262.031426 
z
" clip-path="url(#paf1ce140cb)" style="fill: #4c78a8"/>
   </g>
   <g id="matplotlib.axis_1">
    <g id="xtick_1">
     <g id="line2d_1">
      <defs>
       <path id="ma80022f096" d="M 0 0 
L 0 3.5 
" style="stroke: #000000; stroke-width: 0.8"/>
      </defs>
      <g>
       <use xlink:href="#ma80022f096" x="66.168192" y="289.077656" style="stroke: #000000; stroke-width: 0.8"/>
      </g>
     </g>
     <g id="text_1">
      <text style="font-size: 10px; font-family: 'DejaVu Sans', 'Bitstream Vera Sans', 'Computer Modern Sans Serif', 'Lucida Grande', 'Verdana', 'Geneva', 'Lucid', 'Arial', 'Helvetica', 'Avant Garde', sans-serif; text-anchor: middle" x="66.168192" y="303.675312" transform="rotate(-0 66.168192 303.675312)">0</text>
     </g>
    </g>
    <g id="xtick_2">
     <g id="line2d_2">
      <g>
       <use xlink:href="#ma80022f096" x="127.286595" y="289.077656" style="stroke: #000000; stroke-width: 0.8"/>
      </g>
     </g>
     <g id="text_2">
      <text style="font-size: 10px; font-family: 'DejaVu Sans', 'Bitstream Vera Sans', 'Computer Modern Sans Serif', 'Lucida Grande', 'Verdana', 'Geneva', 'Lucid', 'Arial', 'Helvetica', 'Avant Garde', sans-serif; text-anchor: middle" x="127.286595" y="303.675312" transform="rotate(-0 127.286595 303.675312)">20</text>
     </g>
    </g>
    <g id="xtick_3">
     <g id="line2d_3">
      <g>
       <use xlink:href="#ma80022f096" x="188.404997" y="289.077656" style="stroke: #000000; stroke-width: 0.8"/>
      </g>
     </g>
     <g id="text_3">
      <text style="font-size: 10px; font-family: 'DejaVu Sans', 'Bitstream Vera Sans', 'Computer Modern Sans Serif', 'Lucida Grande', 'Verdana', 'Geneva', 'Lucid', 'Arial', 'Helvetica', 'Avant Garde', sans-serif; text-anchor: middle" x="188.404997" y="303.675312" transform="rotate(-0 188.404997 303.675312)">40</text>
     </g>
    </g>
    <g id="xtick_4">
     <g id="line2d_4">
      <g>
       <use xlink:href="#ma80022f096" x="249.523399" y="289.077656" style="stroke: #000000; stroke-width: 0.8"/>
      </g>
     </g>
     <g id="text_4">
      <text style="font-size: 10px; font-family: 'DejaVu Sans', 'Bitstream Vera Sans', 'Computer Modern Sans Serif', 'Lucida Grande', 'Verdana', 'Geneva', 'Lucid', 'Arial', 'Helvetica', 'Avant Garde', sans-serif; text-anchor: middle" x="249.523399" y="303.675312" transform="rotate(-0 249.523399 303.675312)">60</text>
     </g>
    </g>
    <g id="xtick_5">
     <g id="line2d_5">
      <g>
       <use xlink:href="#ma80022f096" x="310.641801" y="289.077656" style="stroke: #000000; stroke-width: 0.8"/>
      </g>
     </g>
     <g id="text_5">
      <text style="font-size: 10px; font-family: 'DejaVu Sans', 'Bitstream Vera Sans', 'Computer Modern Sans Serif', 'Lucida Grande', 'Verdana', 'Geneva', 'Lucid', 'Arial', 'Helvetica', 'Avant Garde', sans-serif; text-anchor: middle" x="310.641801" y="303.675312" transform="rotate(-0 310.641801 303.675312)">80</text>
     </g>
    </g>
    <g id="xtick_6">
     <g id="line2d_6">
      <g>
       <use xlink:href="#ma80022f096" x="371.760203" y="289.077656" style="stroke: #000000; stroke-width: 0.8"/>
      </g>
     </g>
     <g id="text_6">
      <text style="font-size: 10px; font-family: 'DejaVu Sans', 'Bitstream Vera Sans', 'Computer Modern Sans Serif', 'Lucida Grande', 'Verdana', 'Geneva', 'Lucid', 'Arial', 'Helvetica', 'Avant Garde', sans-serif; text-anchor: middle" x="371.760203" y="303.675312" transform="rotate(-0 371.760203 303.675312)">100</text>
     </g>
    </g>
    <g id="xtick_7">
     <g id="line2d_7">
      <g>
       <use xlink:href="#ma80022f096" x="432.878605" y="289.077656" style="stroke: #000000; stroke-width: 0.8"/>
      </g>
     </g>
     <g id="text_7">
      <text style="font-size: 10px; font-family: 'DejaVu Sans', 'Bitstream Vera Sans', 'Computer Modern Sans Serif', 'Lucida Grande', 'Verdana', 'Geneva', 'Lucid', 'Arial', 'Helvetica', 'Avant Garde', sans-serif; text-anchor: middle" x="432.878605" y="303.675312" transform="rotate(-0 432.878605 303.675312)">120</text>
     </g>
    </g>
    <g id="text_8">
     <text style="font-size: 10px; font-family: 'DejaVu Sans', 'Bitstream Vera Sans', 'Computer Modern Sans Serif', 'Lucida Grande', 'Verdana', 'Geneva', 'Lucid', 'Arial', 'Helvetica', 'Avant Garde', sans-serif; text-anchor: middle" x="260.219119" y="317.676094" transform="rotate(-0 260.219119 317.676094)">channel</text>
    </g>
   </g>
   <g id="matplotlib.axis_2">
    <g id="ytick_1">
     <g id="line2d_8">
      <defs>
       <path id="mb5c6c86160" d="M 0 0 
L -3.5 0 
" style="stroke: #000000; stroke-width: 0.8"/>
      </defs>
      <g>
       <use xlink:href="#mb5c6c86160" x="45.082344" y="267.781311" style="stroke: #000000; stroke-width: 0.8"/>
      </g>
     </g>
     <g id="text_9">
      <text style="font-size: 10px; font-family: 'DejaVu Sans', 'Bitstream Vera Sans', 'Computer Modern Sans Serif', 'Lucida Grande', 'Verdana', 'Geneva', 'Lucid', 'Arial', 'Helvetica', 'Avant Garde', sans-serif; text-anchor: end" x="38.082344" y="271.580139" transform="rotate(-0 38.082344 271.580139)">0</text>
     </g>
    </g>
    <g id="ytick_2">
     <g id="line2d_9">
      <g>
       <use xlink:href="#mb5c6c86160" x="45.082344" y="219.608419" style="stroke: #000000; stroke-width: 0.8"/>
      </g>
     </g>
     <g id="text_10">
      <text style="font-size: 10px; font-family: 'DejaVu Sans', 'Bitstream Vera Sans', 'Computer Modern Sans Serif', 'Lucida Grande', 'Verdana', 'Geneva', 'Lucid', 'Arial', 'Helvetica', 'Avant Garde', sans-serif; text-anchor: end" x="38.082344" y="223.407248" transform="rotate(-0 38.082344 223.407248)">20</text>
     </g>
    </g>
    <g id="ytick_3">
     <g id="line2d_10">
      <g>
       <use xlink:href="#mb5c6c86160" x="45.082344" y="171.435528" style="stroke: #000000; stroke-width: 0.8"/>
      </g>
     </g>
     <g id="text_11">
      <text style="font-size: 10px; font-family: 'DejaVu Sans', 'Bitstream Vera Sans', 'Computer Modern Sans Serif', 'Lucida Grande', 'Verdana', 'Geneva', 'Lucid', 'Arial', 'Helvetica', 'Avant Garde', sans-serif; text-anchor: end" x="38.082344" y="175.234356" transform="rotate(-0 38.082344 175.234356)">40</text>
     </g>
    </g>
    <g id="ytick_4">
     <g id="line2d_11">
      <g>
       <use xlink:href="#mb5c6c86160" x="45.082344" y="123.262636" style="stroke: #000000; stroke-width: 0.8"/>
      </g>
     </g>
     <g id="text_12">
      <text style="font-size: 10px; font-family: 'DejaVu Sans', 'Bitstream Vera Sans', 'Computer Modern Sans Serif', 'Lucida Grande', 'Verdana', 'Geneva', 'Lucid', 'Arial', 'Helvetica', 'Avant Garde', sans-serif; text-anchor: end" x="38.082344" y="127.061465" transform="rotate(-0 38.082344 127.061465)">60</text>
     </g>
    </g>
    <g id="ytick_5">
     <g id="line2d_12">
      <g>
       <use xlink:href="#mb5c6c86160" x="45.082344" y="75.089745" style="stroke: #000000; stroke-width: 0.8"/>
      </g>
     </g>
     <g id="text_13">
      <text style="font-size: 10px; font-family: 'DejaVu Sans', 'Bitstream Vera Sans', 'Computer Modern Sans Serif', 'Lucida Grande', 'Verdana', 'Geneva', 'Lucid', 'Arial', 'Helvetica', 'Avant Garde', sans-serif; text-anchor: end" x="38.082344" y="78.888573" transform="rotate(-0 38.082344 78.888573)">80</text>
     </g>
    </g>
    <g id="text_14">
     <text style="font-size: 10px; font-family: 'DejaVu Sans', 'Bitstream Vera Sans', 'Computer Modern Sans Serif', 'Lucida Grande', 'Verdana', 'Geneva', 'Lucid', 'Arial', 'Helvetica', 'Avant Garde', sans-serif; text-anchor: middle" x="18.955" y="177.703539" transform="rotate(-90 18.955 177.703539)">50 Hz envelope  ON − OFF</text>
    </g>
   </g>
   <g id="line2d_13">
    <path d="M 45.082344 267.781311 
L 475.355894 267.781311 
" clip-path="url(#paf1ce140cb)" style="fill: none; stroke: #333333; stroke-width: 0.8; stroke-linecap: square"/>
   </g>
   <g id="patch_131">
    <path d="M 45.082344 289.077656 
L 45.082344 66.329422 
" style="fill: none; stroke: #000000; stroke-width: 0.8; stroke-linejoin: miter; stroke-linecap: square"/>
   </g>
   <g id="patch_132">
    <path d="M 475.355894 289.077656 
L 475.355894 66.329422 
" style="fill: none; stroke: #000000; stroke-width: 0.8; stroke-linejoin: miter; stroke-linecap: square"/>
   </g>
   <g id="patch_133">
    <path d="M 45.082344 289.077656 
L 475.355894 289.077656 
" style="fill: none; stroke: #000000; stroke-width: 0.8; stroke-linejoin: miter; stroke-linecap: square"/>
   </g>
   <g id="patch_134">
    <path d="M 45.082344 66.329422 
L 475.355894 66.329422 
" style="fill: none; stroke: #000000; stroke-width: 0.8; stroke-linejoin: miter; stroke-linecap: square"/>
   </g>
   <g id="text_15">
    <text style="font-size: 8.5px; font-family: 'DejaVu Sans', 'Bitstream Vera Sans', 'Computer Modern Sans Serif', 'Lucida Grande', 'Verdana', 'Geneva', 'Lucid', 'Arial', 'Helvetica', 'Avant Garde', sans-serif; fill: #333333" transform="translate(57.99055 84.776336)">good mean -1.0</text>
    <text style="font-size: 8.5px; font-family: 'DejaVu Sans', 'Bitstream Vera Sans', 'Computer Modern Sans Serif', 'Lucida Grande', 'Verdana', 'Geneva', 'Lucid', 'Arial', 'Helvetica', 'Avant Garde', sans-serif; fill: #333333" transform="translate(57.99055 94.97866)">hot ch (z&gt;4): 0</text>
    <text style="font-size: 8.5px; font-family: 'DejaVu Sans', 'Bitstream Vera Sans', 'Computer Modern Sans Serif', 'Lucida Grande', 'Verdana', 'Geneva', 'Lucid', 'Arial', 'Helvetica', 'Avant Garde', sans-serif; fill: #333333" transform="translate(57.99055 105.180984)">disconnected-dead mean +1.9</text>
   </g>
   <g id="text_16">
    <text style="font-size: 11px; font-family: 'DejaVu Sans', 'Bitstream Vera Sans', 'Computer Modern Sans Serif', 'Lucida Grande', 'Verdana', 'Geneva', 'Lucid', 'Arial', 'Helvetica', 'Avant Garde', sans-serif; text-anchor: middle" x="260.219119" y="60.329422" transform="rotate(-0 260.219119 60.329422)">dHPC (0–127)</text>
   </g>
  </g>
  <g id="axes_2">
   <g id="patch_135">
    <path d="M 489.655894 289.077656 
L 919.929445 289.077656 
L 919.929445 66.329422 
L 489.655894 66.329422 
z
" style="fill: #ffffff"/>
   </g>
   <g id="patch_136">
    <path d="M 509.213783 267.781311 
L 512.269703 267.781311 
L 512.269703 180.347797 
L 509.213783 180.347797 
z
" clip-path="url(#pf1781fd08c)" style="fill: #d62728"/>
   </g>
   <g id="patch_137">
    <path d="M 512.269703 267.781311 
L 515.325623 267.781311 
L 515.325623 247.025928 
L 512.269703 247.025928 
z
" clip-path="url(#pf1781fd08c)" style="fill: #d62728"/>
   </g>
   <g id="patch_138">
    <path d="M 515.325623 267.781311 
L 518.381543 267.781311 
L 518.381543 257.924628 
L 515.325623 257.924628 
z
" clip-path="url(#pf1781fd08c)" style="fill: #d62728"/>
   </g>
   <g id="patch_139">
    <path d="M 518.381543 267.781311 
L 521.437463 267.781311 
L 521.437463 260.461981 
L 518.381543 260.461981 
z
" clip-path="url(#pf1781fd08c)" style="fill: #d62728"/>
   </g>
   <g id="patch_140">
    <path d="M 521.437463 267.781311 
L 524.493383 267.781311 
L 524.493383 263.268567 
L 521.437463 263.268567 
z
" clip-path="url(#pf1781fd08c)" style="fill: #d62728"/>
   </g>
   <g id="patch_141">
    <path d="M 524.493383 267.781311 
L 527.549304 267.781311 
L 527.549304 265.144718 
L 524.493383 265.144718 
z
" clip-path="url(#pf1781fd08c)" style="fill: #d62728"/>
   </g>
   <g id="patch_142">
    <path d="M 527.549304 267.781311 
L 530.605224 267.781311 
L 530.605224 265.449576 
L 527.549304 265.449576 
z
" clip-path="url(#pf1781fd08c)" style="fill: #d62728"/>
   </g>
   <g id="patch_143">
    <path d="M 530.605224 267.781311 
L 533.661144 267.781311 
L 533.661144 263.079158 
L 530.605224 263.079158 
z
" clip-path="url(#pf1781fd08c)" style="fill: #d62728"/>
   </g>
   <g id="patch_144">
    <path d="M 533.661144 267.781311 
L 536.717064 267.781311 
L 536.717064 230.71072 
L 533.661144 230.71072 
z
" clip-path="url(#pf1781fd08c)" style="fill: #2ca02c"/>
   </g>
   <g id="patch_145">
    <path d="M 536.717064 267.781311 
L 539.772984 267.781311 
L 539.772984 259.786541 
L 536.717064 259.786541 
z
" clip-path="url(#pf1781fd08c)" style="fill: #d62728"/>
   </g>
   <g id="patch_146">
    <path d="M 539.772984 267.781311 
L 542.828904 267.781311 
L 542.828904 265.230388 
L 539.772984 265.230388 
z
" clip-path="url(#pf1781fd08c)" style="fill: #d62728"/>
   </g>
   <g id="patch_147">
    <path d="M 542.828904 267.781311 
L 545.884824 267.781311 
L 545.884824 265.503603 
L 542.828904 265.503603 
z
" clip-path="url(#pf1781fd08c)" style="fill: #d62728"/>
   </g>
   <g id="patch_148">
    <path d="M 545.884824 267.781311 
L 548.940744 267.781311 
L 548.940744 267.076309 
L 545.884824 267.076309 
z
" clip-path="url(#pf1781fd08c)" style="fill: #d62728"/>
   </g>
   <g id="patch_149">
    <path d="M 548.940744 267.781311 
L 551.996664 267.781311 
L 551.996664 267.38615 
L 548.940744 267.38615 
z
" clip-path="url(#pf1781fd08c)" style="fill: #d62728"/>
   </g>
   <g id="patch_150">
    <path d="M 551.996664 267.781311 
L 555.052584 267.781311 
L 555.052584 267.191433 
L 551.996664 267.191433 
z
" clip-path="url(#pf1781fd08c)" style="fill: #ff7f0e"/>
   </g>
   <g id="patch_151">
    <path d="M 555.052584 267.781311 
L 558.108505 267.781311 
L 558.108505 267.237327 
L 555.052584 267.237327 
z
" clip-path="url(#pf1781fd08c)" style="fill: #2ca02c"/>
   </g>
   <g id="patch_152">
    <path d="M 558.108505 267.781311 
L 561.164425 267.781311 
L 561.164425 267.6175 
L 558.108505 267.6175 
z
" clip-path="url(#pf1781fd08c)" style="fill: #2ca02c"/>
   </g>
   <g id="patch_153">
    <path d="M 561.164425 267.781311 
L 564.220345 267.781311 
L 564.220345 267.507567 
L 561.164425 267.507567 
z
" clip-path="url(#pf1781fd08c)" style="fill: #2ca02c"/>
   </g>
   <g id="patch_154">
    <path d="M 564.220345 267.781311 
L 567.276265 267.781311 
L 567.276265 267.294587 
L 564.220345 267.294587 
z
" clip-path="url(#pf1781fd08c)" style="fill: #2ca02c"/>
   </g>
   <g id="patch_155">
    <path d="M 567.276265 267.781311 
L 570.332185 267.781311 
L 570.332185 267.644185 
L 567.276265 267.644185 
z
" clip-path="url(#pf1781fd08c)" style="fill: #2ca02c"/>
   </g>
   <g id="patch_156">
    <path d="M 570.332185 267.781311 
L 573.388105 267.781311 
L 573.388105 267.865031 
L 570.332185 267.865031 
z
" clip-path="url(#pf1781fd08c)" style="fill: #2ca02c"/>
   </g>
   <g id="patch_157">
    <path d="M 573.388105 267.781311 
L 576.444025 267.781311 
L 576.444025 267.49277 
L 573.388105 267.49277 
z
" clip-path="url(#pf1781fd08c)" style="fill: #2ca02c"/>
   </g>
   <g id="patch_158">
    <path d="M 576.444025 267.781311 
L 579.499945 267.781311 
L 579.499945 267.611316 
L 576.444025 267.611316 
z
" clip-path="url(#pf1781fd08c)" style="fill: #2ca02c"/>
   </g>
   <g id="patch_159">
    <path d="M 579.499945 267.781311 
L 582.555865 267.781311 
L 582.555865 267.622036 
L 579.499945 267.622036 
z
" clip-path="url(#pf1781fd08c)" style="fill: #2ca02c"/>
   </g>
   <g id="patch_160">
    <path d="M 582.555865 267.781311 
L 585.611785 267.781311 
L 585.611785 267.513659 
L 582.555865 267.513659 
z
" clip-path="url(#pf1781fd08c)" style="fill: #2ca02c"/>
   </g>
   <g id="patch_161">
    <path d="M 585.611785 267.781311 
L 588.667706 267.781311 
L 588.667706 267.879136 
L 585.611785 267.879136 
z
" clip-path="url(#pf1781fd08c)" style="fill: #2ca02c"/>
   </g>
   <g id="patch_162">
    <path d="M 588.667706 267.781311 
L 591.723626 267.781311 
L 591.723626 267.903184 
L 588.667706 267.903184 
z
" clip-path="url(#pf1781fd08c)" style="fill: #2ca02c"/>
   </g>
   <g id="patch_163">
    <path d="M 591.723626 267.781311 
L 594.779546 267.781311 
L 594.779546 267.559568 
L 591.723626 267.559568 
z
" clip-path="url(#pf1781fd08c)" style="fill: #2ca02c"/>
   </g>
   <g id="patch_164">
    <path d="M 594.779546 267.781311 
L 597.835466 267.781311 
L 597.835466 267.596944 
L 594.779546 267.596944 
z
" clip-path="url(#pf1781fd08c)" style="fill: #2ca02c"/>
   </g>
   <g id="patch_165">
    <path d="M 597.835466 267.781311 
L 600.891386 267.781311 
L 600.891386 267.597362 
L 597.835466 267.597362 
z
" clip-path="url(#pf1781fd08c)" style="fill: #2ca02c"/>
   </g>
   <g id="patch_166">
    <path d="M 600.891386 267.781311 
L 603.947306 267.781311 
L 603.947306 267.600438 
L 600.891386 267.600438 
z
" clip-path="url(#pf1781fd08c)" style="fill: #2ca02c"/>
   </g>
   <g id="patch_167">
    <path d="M 603.947306 267.781311 
L 607.003226 267.781311 
L 607.003226 267.912437 
L 603.947306 267.912437 
z
" clip-path="url(#pf1781fd08c)" style="fill: #2ca02c"/>
   </g>
   <g id="patch_168">
    <path d="M 607.003226 267.781311 
L 610.059146 267.781311 
L 610.059146 267.591753 
L 607.003226 267.591753 
z
" clip-path="url(#pf1781fd08c)" style="fill: #2ca02c"/>
   </g>
   <g id="patch_169">
    <path d="M 610.059146 267.781311 
L 613.115066 267.781311 
L 613.115066 267.671115 
L 610.059146 267.671115 
z
" clip-path="url(#pf1781fd08c)" style="fill: #2ca02c"/>
   </g>
   <g id="patch_170">
    <path d="M 613.115066 267.781311 
L 616.170987 267.781311 
L 616.170987 267.382788 
L 613.115066 267.382788 
z
" clip-path="url(#pf1781fd08c)" style="fill: #2ca02c"/>
   </g>
   <g id="patch_171">
    <path d="M 616.170987 267.781311 
L 619.226907 267.781311 
L 619.226907 267.760703 
L 616.170987 267.760703 
z
" clip-path="url(#pf1781fd08c)" style="fill: #2ca02c"/>
   </g>
   <g id="patch_172">
    <path d="M 619.226907 267.781311 
L 622.282827 267.781311 
L 622.282827 267.702449 
L 619.226907 267.702449 
z
" clip-path="url(#pf1781fd08c)" style="fill: #2ca02c"/>
   </g>
   <g id="patch_173">
    <path d="M 622.282827 267.781311 
L 625.338747 267.781311 
L 625.338747 267.642156 
L 622.282827 267.642156 
z
" clip-path="url(#pf1781fd08c)" style="fill: #2ca02c"/>
   </g>
   <g id="patch_174">
    <path d="M 625.338747 267.781311 
L 628.394667 267.781311 
L 628.394667 267.944648 
L 625.338747 267.944648 
z
" clip-path="url(#pf1781fd08c)" style="fill: #2ca02c"/>
   </g>
   <g id="patch_175">
    <path d="M 628.394667 267.781311 
L 631.450587 267.781311 
L 631.450587 267.644852 
L 628.394667 267.644852 
z
" clip-path="url(#pf1781fd08c)" style="fill: #2ca02c"/>
   </g>
   <g id="patch_176">
    <path d="M 631.450587 267.781311 
L 634.506507 267.781311 
L 634.506507 267.700843 
L 631.450587 267.700843 
z
" clip-path="url(#pf1781fd08c)" style="fill: #2ca02c"/>
   </g>
   <g id="patch_177">
    <path d="M 634.506507 267.781311 
L 637.562427 267.781311 
L 637.562427 267.60954 
L 634.506507 267.60954 
z
" clip-path="url(#pf1781fd08c)" style="fill: #2ca02c"/>
   </g>
   <g id="patch_178">
    <path d="M 637.562427 267.781311 
L 640.618347 267.781311 
L 640.618347 267.701698 
L 637.562427 267.701698 
z
" clip-path="url(#pf1781fd08c)" style="fill: #2ca02c"/>
   </g>
   <g id="patch_179">
    <path d="M 640.618347 267.781311 
L 643.674267 267.781311 
L 643.674267 267.639928 
L 640.618347 267.639928 
z
" clip-path="url(#pf1781fd08c)" style="fill: #2ca02c"/>
   </g>
   <g id="patch_180">
    <path d="M 643.674267 267.781311 
L 646.730188 267.781311 
L 646.730188 265.804337 
L 643.674267 265.804337 
z
" clip-path="url(#pf1781fd08c)" style="fill: #2ca02c"/>
   </g>
   <g id="patch_181">
    <path d="M 646.730188 267.781311 
L 649.786108 267.781311 
L 649.786108 240.029302 
L 646.730188 240.029302 
z
" clip-path="url(#pf1781fd08c)" style="fill: #2ca02c"/>
   </g>
   <g id="patch_182">
    <path d="M 649.786108 267.781311 
L 652.842028 267.781311 
L 652.842028 239.46841 
L 649.786108 239.46841 
z
" clip-path="url(#pf1781fd08c)" style="fill: #2ca02c"/>
   </g>
   <g id="patch_183">
    <path d="M 652.842028 267.781311 
L 655.897948 267.781311 
L 655.897948 239.640456 
L 652.842028 239.640456 
z
" clip-path="url(#pf1781fd08c)" style="fill: #2ca02c"/>
   </g>
   <g id="patch_184">
    <path d="M 655.897948 267.781311 
L 658.953868 267.781311 
L 658.953868 244.163849 
L 655.897948 244.163849 
z
" clip-path="url(#pf1781fd08c)" style="fill: #2ca02c"/>
   </g>
   <g id="patch_185">
    <path d="M 658.953868 267.781311 
L 662.009788 267.781311 
L 662.009788 243.87849 
L 658.953868 243.87849 
z
" clip-path="url(#pf1781fd08c)" style="fill: #2ca02c"/>
   </g>
   <g id="patch_186">
    <path d="M 662.009788 267.781311 
L 665.065708 267.781311 
L 665.065708 243.894834 
L 662.009788 243.894834 
z
" clip-path="url(#pf1781fd08c)" style="fill: #2ca02c"/>
   </g>
   <g id="patch_187">
    <path d="M 665.065708 267.781311 
L 668.121628 267.781311 
L 668.121628 243.929557 
L 665.065708 243.929557 
z
" clip-path="url(#pf1781fd08c)" style="fill: #2ca02c"/>
   </g>
   <g id="patch_188">
    <path d="M 668.121628 267.781311 
L 671.177548 267.781311 
L 671.177548 243.383791 
L 668.121628 243.383791 
z
" clip-path="url(#pf1781fd08c)" style="fill: #2ca02c"/>
   </g>
   <g id="patch_189">
    <path d="M 671.177548 267.781311 
L 674.233468 267.781311 
L 674.233468 242.8978 
L 671.177548 242.8978 
z
" clip-path="url(#pf1781fd08c)" style="fill: #2ca02c"/>
   </g>
   <g id="patch_190">
    <path d="M 674.233468 267.781311 
L 677.289389 267.781311 
L 677.289389 242.963472 
L 674.233468 242.963472 
z
" clip-path="url(#pf1781fd08c)" style="fill: #2ca02c"/>
   </g>
   <g id="patch_191">
    <path d="M 677.289389 267.781311 
L 680.345309 267.781311 
L 680.345309 242.00081 
L 677.289389 242.00081 
z
" clip-path="url(#pf1781fd08c)" style="fill: #2ca02c"/>
   </g>
   <g id="patch_192">
    <path d="M 680.345309 267.781311 
L 683.401229 267.781311 
L 683.401229 241.728106 
L 680.345309 241.728106 
z
" clip-path="url(#pf1781fd08c)" style="fill: #2ca02c"/>
   </g>
   <g id="patch_193">
    <path d="M 683.401229 267.781311 
L 686.457149 267.781311 
L 686.457149 241.378587 
L 683.401229 241.378587 
z
" clip-path="url(#pf1781fd08c)" style="fill: #2ca02c"/>
   </g>
   <g id="patch_194">
    <path d="M 686.457149 267.781311 
L 689.513069 267.781311 
L 689.513069 262.299037 
L 686.457149 262.299037 
z
" clip-path="url(#pf1781fd08c)" style="fill: #2ca02c"/>
   </g>
   <g id="patch_195">
    <path d="M 689.513069 267.781311 
L 692.568989 267.781311 
L 692.568989 267.147278 
L 689.513069 267.147278 
z
" clip-path="url(#pf1781fd08c)" style="fill: #2ca02c"/>
   </g>
   <g id="patch_196">
    <path d="M 692.568989 267.781311 
L 695.624909 267.781311 
L 695.624909 267.825054 
L 692.568989 267.825054 
z
" clip-path="url(#pf1781fd08c)" style="fill: #2ca02c"/>
   </g>
   <g id="patch_197">
    <path d="M 695.624909 267.781311 
L 698.680829 267.781311 
L 698.680829 267.723434 
L 695.624909 267.723434 
z
" clip-path="url(#pf1781fd08c)" style="fill: #2ca02c"/>
   </g>
   <g id="patch_198">
    <path d="M 698.680829 267.781311 
L 701.736749 267.781311 
L 701.736749 266.494299 
L 698.680829 266.494299 
z
" clip-path="url(#pf1781fd08c)" style="fill: #2ca02c"/>
   </g>
   <g id="patch_199">
    <path d="M 701.736749 267.781311 
L 704.792669 267.781311 
L 704.792669 259.112011 
L 701.736749 259.112011 
z
" clip-path="url(#pf1781fd08c)" style="fill: #2ca02c"/>
   </g>
   <g id="patch_200">
    <path d="M 704.792669 267.781311 
L 707.84859 267.781311 
L 707.84859 223.257724 
L 704.792669 223.257724 
z
" clip-path="url(#pf1781fd08c)" style="fill: #2ca02c"/>
   </g>
   <g id="patch_201">
    <path d="M 707.84859 267.781311 
L 710.90451 267.781311 
L 710.90451 257.594815 
L 707.84859 257.594815 
z
" clip-path="url(#pf1781fd08c)" style="fill: #2ca02c"/>
   </g>
   <g id="patch_202">
    <path d="M 710.90451 267.781311 
L 713.96043 267.781311 
L 713.96043 267.15603 
L 710.90451 267.15603 
z
" clip-path="url(#pf1781fd08c)" style="fill: #2ca02c"/>
   </g>
   <g id="patch_203">
    <path d="M 713.96043 267.781311 
L 717.01635 267.781311 
L 717.01635 258.08584 
L 713.96043 258.08584 
z
" clip-path="url(#pf1781fd08c)" style="fill: #2ca02c"/>
   </g>
   <g id="patch_204">
    <path d="M 717.01635 267.781311 
L 720.07227 267.781311 
L 720.07227 228.708679 
L 717.01635 228.708679 
z
" clip-path="url(#pf1781fd08c)" style="fill: #2ca02c"/>
   </g>
   <g id="patch_205">
    <path d="M 720.07227 267.781311 
L 723.12819 267.781311 
L 723.12819 266.249145 
L 720.07227 266.249145 
z
" clip-path="url(#pf1781fd08c)" style="fill: #2ca02c"/>
   </g>
   <g id="patch_206">
    <path d="M 723.12819 267.781311 
L 726.18411 267.781311 
L 726.18411 267.45129 
L 723.12819 267.45129 
z
" clip-path="url(#pf1781fd08c)" style="fill: #2ca02c"/>
   </g>
   <g id="patch_207">
    <path d="M 726.18411 267.781311 
L 729.24003 267.781311 
L 729.24003 267.848762 
L 726.18411 267.848762 
z
" clip-path="url(#pf1781fd08c)" style="fill: #2ca02c"/>
   </g>
   <g id="patch_208">
    <path d="M 729.24003 267.781311 
L 732.29595 267.781311 
L 732.29595 267.696601 
L 729.24003 267.696601 
z
" clip-path="url(#pf1781fd08c)" style="fill: #2ca02c"/>
   </g>
   <g id="patch_209">
    <path d="M 732.29595 267.781311 
L 735.351871 267.781311 
L 735.351871 267.822671 
L 732.29595 267.822671 
z
" clip-path="url(#pf1781fd08c)" style="fill: #2ca02c"/>
   </g>
   <g id="patch_210">
    <path d="M 735.351871 267.781311 
L 738.407791 267.781311 
L 738.407791 267.682122 
L 735.351871 267.682122 
z
" clip-path="url(#pf1781fd08c)" style="fill: #2ca02c"/>
   </g>
   <g id="patch_211">
    <path d="M 738.407791 267.781311 
L 741.463711 267.781311 
L 741.463711 267.303143 
L 738.407791 267.303143 
z
" clip-path="url(#pf1781fd08c)" style="fill: #2ca02c"/>
   </g>
   <g id="patch_212">
    <path d="M 741.463711 267.781311 
L 744.519631 267.781311 
L 744.519631 267.614087 
L 741.463711 267.614087 
z
" clip-path="url(#pf1781fd08c)" style="fill: #2ca02c"/>
   </g>
   <g id="patch_213">
    <path d="M 744.519631 267.781311 
L 747.575551 267.781311 
L 747.575551 267.466 
L 744.519631 267.466 
z
" clip-path="url(#pf1781fd08c)" style="fill: #2ca02c"/>
   </g>
   <g id="patch_214">
    <path d="M 747.575551 267.781311 
L 750.631471 267.781311 
L 750.631471 266.912505 
L 747.575551 266.912505 
z
" clip-path="url(#pf1781fd08c)" style="fill: #2ca02c"/>
   </g>
   <g id="patch_215">
    <path d="M 750.631471 267.781311 
L 753.687391 267.781311 
L 753.687391 255.425734 
L 750.631471 255.425734 
z
" clip-path="url(#pf1781fd08c)" style="fill: #2ca02c"/>
   </g>
   <g id="patch_216">
    <path d="M 753.687391 267.781311 
L 756.743311 267.781311 
L 756.743311 231.843232 
L 753.687391 231.843232 
z
" clip-path="url(#pf1781fd08c)" style="fill: #2ca02c"/>
   </g>
   <g id="patch_217">
    <path d="M 756.743311 267.781311 
L 759.799231 267.781311 
L 759.799231 265.163982 
L 756.743311 265.163982 
z
" clip-path="url(#pf1781fd08c)" style="fill: #2ca02c"/>
   </g>
   <g id="patch_218">
    <path d="M 759.799231 267.781311 
L 762.855151 267.781311 
L 762.855151 264.959054 
L 759.799231 264.959054 
z
" clip-path="url(#pf1781fd08c)" style="fill: #2ca02c"/>
   </g>
   <g id="patch_219">
    <path d="M 762.855151 267.781311 
L 765.911072 267.781311 
L 765.911072 227.20697 
L 762.855151 227.20697 
z
" clip-path="url(#pf1781fd08c)" style="fill: #2ca02c"/>
   </g>
   <g id="patch_220">
    <path d="M 765.911072 267.781311 
L 768.966992 267.781311 
L 768.966992 226.432899 
L 765.911072 226.432899 
z
" clip-path="url(#pf1781fd08c)" style="fill: #2ca02c"/>
   </g>
   <g id="patch_221">
    <path d="M 768.966992 267.781311 
L 772.022912 267.781311 
L 772.022912 224.798674 
L 768.966992 224.798674 
z
" clip-path="url(#pf1781fd08c)" style="fill: #2ca02c"/>
   </g>
   <g id="patch_222">
    <path d="M 772.022912 267.781311 
L 775.078832 267.781311 
L 775.078832 224.541022 
L 772.022912 224.541022 
z
" clip-path="url(#pf1781fd08c)" style="fill: #2ca02c"/>
   </g>
   <g id="patch_223">
    <path d="M 775.078832 267.781311 
L 778.134752 267.781311 
L 778.134752 223.543677 
L 775.078832 223.543677 
z
" clip-path="url(#pf1781fd08c)" style="fill: #2ca02c"/>
   </g>
   <g id="patch_224">
    <path d="M 778.134752 267.781311 
L 781.190672 267.781311 
L 781.190672 242.278348 
L 778.134752 242.278348 
z
" clip-path="url(#pf1781fd08c)" style="fill: #2ca02c"/>
   </g>
   <g id="patch_225">
    <path d="M 781.190672 267.781311 
L 784.246592 267.781311 
L 784.246592 222.981043 
L 781.190672 222.981043 
z
" clip-path="url(#pf1781fd08c)" style="fill: #2ca02c"/>
   </g>
   <g id="patch_226">
    <path d="M 784.246592 267.781311 
L 787.302512 267.781311 
L 787.302512 222.237786 
L 784.246592 222.237786 
z
" clip-path="url(#pf1781fd08c)" style="fill: #2ca02c"/>
   </g>
   <g id="patch_227">
    <path d="M 787.302512 267.781311 
L 790.358432 267.781311 
L 790.358432 222.463453 
L 787.302512 222.463453 
z
" clip-path="url(#pf1781fd08c)" style="fill: #2ca02c"/>
   </g>
   <g id="patch_228">
    <path d="M 790.358432 267.781311 
L 793.414352 267.781311 
L 793.414352 264.198277 
L 790.358432 264.198277 
z
" clip-path="url(#pf1781fd08c)" style="fill: #2ca02c"/>
   </g>
   <g id="patch_229">
    <path d="M 793.414352 267.781311 
L 796.470273 267.781311 
L 796.470273 266.950709 
L 793.414352 266.950709 
z
" clip-path="url(#pf1781fd08c)" style="fill: #2ca02c"/>
   </g>
   <g id="patch_230">
    <path d="M 796.470273 267.781311 
L 799.526193 267.781311 
L 799.526193 263.522507 
L 796.470273 263.522507 
z
" clip-path="url(#pf1781fd08c)" style="fill: #2ca02c"/>
   </g>
   <g id="patch_231">
    <path d="M 799.526193 267.781311 
L 802.582113 267.781311 
L 802.582113 222.87451 
L 799.526193 222.87451 
z
" clip-path="url(#pf1781fd08c)" style="fill: #2ca02c"/>
   </g>
   <g id="patch_232">
    <path d="M 802.582113 267.781311 
L 805.638033 267.781311 
L 805.638033 243.561705 
L 802.582113 243.561705 
z
" clip-path="url(#pf1781fd08c)" style="fill: #d62728"/>
   </g>
   <g id="patch_233">
    <path d="M 805.638033 267.781311 
L 808.693953 267.781311 
L 808.693953 146.158597 
L 805.638033 146.158597 
z
" clip-path="url(#pf1781fd08c)" style="fill: #d62728"/>
   </g>
   <g id="patch_234">
    <path d="M 808.693953 267.781311 
L 811.749873 267.781311 
L 811.749873 145.21524 
L 808.693953 145.21524 
z
" clip-path="url(#pf1781fd08c)" style="fill: #d62728"/>
   </g>
   <g id="patch_235">
    <path d="M 811.749873 267.781311 
L 814.805793 267.781311 
L 814.805793 141.714022 
L 811.749873 141.714022 
z
" clip-path="url(#pf1781fd08c)" style="fill: #d62728"/>
   </g>
   <g id="patch_236">
    <path d="M 814.805793 267.781311 
L 817.861713 267.781311 
L 817.861713 129.93165 
L 814.805793 129.93165 
z
" clip-path="url(#pf1781fd08c)" style="fill: #d62728"/>
   </g>
   <g id="patch_237">
    <path d="M 817.861713 267.781311 
L 820.917633 267.781311 
L 820.917633 132.883849 
L 817.861713 132.883849 
z
" clip-path="url(#pf1781fd08c)" style="fill: #d62728"/>
   </g>
   <g id="patch_238">
    <path d="M 820.917633 267.781311 
L 823.973553 267.781311 
L 823.973553 118.194325 
L 820.917633 118.194325 
z
" clip-path="url(#pf1781fd08c)" style="fill: #d62728"/>
   </g>
   <g id="patch_239">
    <path d="M 823.973553 267.781311 
L 827.029474 267.781311 
L 827.029474 274.960927 
L 823.973553 274.960927 
z
" clip-path="url(#pf1781fd08c)" style="fill: #d62728"/>
   </g>
   <g id="patch_240">
    <path d="M 827.029474 267.781311 
L 830.085394 267.781311 
L 830.085394 279.890011 
L 827.029474 279.890011 
z
" clip-path="url(#pf1781fd08c)" style="fill: #d62728"/>
   </g>
   <g id="patch_241">
    <path d="M 830.085394 267.781311 
L 833.141314 267.781311 
L 833.141314 269.240601 
L 830.085394 269.240601 
z
" clip-path="url(#pf1781fd08c)" style="fill: #d62728"/>
   </g>
   <g id="patch_242">
    <path d="M 833.141314 267.781311 
L 836.197234 267.781311 
L 836.197234 260.274511 
L 833.141314 260.274511 
z
" clip-path="url(#pf1781fd08c)" style="fill: #d62728"/>
   </g>
   <g id="patch_243">
    <path d="M 836.197234 267.781311 
L 839.253154 267.781311 
L 839.253154 269.62213 
L 836.197234 269.62213 
z
" clip-path="url(#pf1781fd08c)" style="fill: #d62728"/>
   </g>
   <g id="patch_244">
    <path d="M 839.253154 267.781311 
L 842.309074 267.781311 
L 842.309074 261.317743 
L 839.253154 261.317743 
z
" clip-path="url(#pf1781fd08c)" style="fill: #d62728"/>
   </g>
   <g id="patch_245">
    <path d="M 842.309074 267.781311 
L 845.364994 267.781311 
L 845.364994 260.476953 
L 842.309074 260.476953 
z
" clip-path="url(#pf1781fd08c)" style="fill: #d62728"/>
   </g>
   <g id="patch_246">
    <path d="M 845.364994 267.781311 
L 848.420914 267.781311 
L 848.420914 247.464139 
L 845.364994 247.464139 
z
" clip-path="url(#pf1781fd08c)" style="fill: #d62728"/>
   </g>
   <g id="patch_247">
    <path d="M 848.420914 267.781311 
L 851.476834 267.781311 
L 851.476834 141.968837 
L 848.420914 141.968837 
z
" clip-path="url(#pf1781fd08c)" style="fill: #d62728"/>
   </g>
   <g id="patch_248">
    <path d="M 851.476834 267.781311 
L 854.532755 267.781311 
L 854.532755 84.888019 
L 851.476834 84.888019 
z
" clip-path="url(#pf1781fd08c)" style="fill: #d62728"/>
   </g>
   <g id="patch_249">
    <path d="M 854.532755 267.781311 
L 857.588675 267.781311 
L 857.588675 232.598035 
L 854.532755 232.598035 
z
" clip-path="url(#pf1781fd08c)" style="fill: #d62728"/>
   </g>
   <g id="patch_250">
    <path d="M 857.588675 267.781311 
L 860.644595 267.781311 
L 860.644595 228.656561 
L 857.588675 228.656561 
z
" clip-path="url(#pf1781fd08c)" style="fill: #d62728"/>
   </g>
   <g id="patch_251">
    <path d="M 860.644595 267.781311 
L 863.700515 267.781311 
L 863.700515 85.952418 
L 860.644595 85.952418 
z
" clip-path="url(#pf1781fd08c)" style="fill: #d62728"/>
   </g>
   <g id="patch_252">
    <path d="M 863.700515 267.781311 
L 866.756435 267.781311 
L 866.756435 75.922369 
L 863.700515 75.922369 
z
" clip-path="url(#pf1781fd08c)" style="fill: #d62728"/>
   </g>
   <g id="patch_253">
    <path d="M 866.756435 267.781311 
L 869.812355 267.781311 
L 869.812355 85.823572 
L 866.756435 85.823572 
z
" clip-path="url(#pf1781fd08c)" style="fill: #d62728"/>
   </g>
   <g id="patch_254">
    <path d="M 869.812355 267.781311 
L 872.868275 267.781311 
L 872.868275 85.202117 
L 869.812355 85.202117 
z
" clip-path="url(#pf1781fd08c)" style="fill: #d62728"/>
   </g>
   <g id="patch_255">
    <path d="M 872.868275 267.781311 
L 875.924195 267.781311 
L 875.924195 84.801996 
L 872.868275 84.801996 
z
" clip-path="url(#pf1781fd08c)" style="fill: #d62728"/>
   </g>
   <g id="patch_256">
    <path d="M 875.924195 267.781311 
L 878.980115 267.781311 
L 878.980115 96.85612 
L 875.924195 96.85612 
z
" clip-path="url(#pf1781fd08c)" style="fill: #d62728"/>
   </g>
   <g id="patch_257">
    <path d="M 878.980115 267.781311 
L 882.036035 267.781311 
L 882.036035 85.777876 
L 878.980115 85.777876 
z
" clip-path="url(#pf1781fd08c)" style="fill: #d62728"/>
   </g>
   <g id="patch_258">
    <path d="M 882.036035 267.781311 
L 885.091956 267.781311 
L 885.091956 81.356085 
L 882.036035 81.356085 
z
" clip-path="url(#pf1781fd08c)" style="fill: #d62728"/>
   </g>
   <g id="patch_259">
    <path d="M 885.091956 267.781311 
L 888.147876 267.781311 
L 888.147876 89.510929 
L 885.091956 89.510929 
z
" clip-path="url(#pf1781fd08c)" style="fill: #d62728"/>
   </g>
   <g id="patch_260">
    <path d="M 888.147876 267.781311 
L 891.203796 267.781311 
L 891.203796 257.313506 
L 888.147876 257.313506 
z
" clip-path="url(#pf1781fd08c)" style="fill: #d62728"/>
   </g>
   <g id="patch_261">
    <path d="M 891.203796 267.781311 
L 894.259716 267.781311 
L 894.259716 276.112812 
L 891.203796 276.112812 
z
" clip-path="url(#pf1781fd08c)" style="fill: #d62728"/>
   </g>
   <g id="patch_262">
    <path d="M 894.259716 267.781311 
L 897.315636 267.781311 
L 897.315636 257.636951 
L 894.259716 257.636951 
z
" clip-path="url(#pf1781fd08c)" style="fill: #d62728"/>
   </g>
   <g id="patch_263">
    <path d="M 897.315636 267.781311 
L 900.371556 267.781311 
L 900.371556 213.236505 
L 897.315636 213.236505 
z
" clip-path="url(#pf1781fd08c)" style="fill: #d62728"/>
   </g>
   <g id="matplotlib.axis_3">
    <g id="xtick_8">
     <g id="line2d_14">
      <g>
       <use xlink:href="#ma80022f096" x="547.412784" y="289.077656" style="stroke: #000000; stroke-width: 0.8"/>
      </g>
     </g>
     <g id="text_17">
      <text style="font-size: 10px; font-family: 'DejaVu Sans', 'Bitstream Vera Sans', 'Computer Modern Sans Serif', 'Lucida Grande', 'Verdana', 'Geneva', 'Lucid', 'Arial', 'Helvetica', 'Avant Garde', sans-serif; text-anchor: middle" x="547.412784" y="303.675312" transform="rotate(-0 547.412784 303.675312)">140</text>
     </g>
    </g>
    <g id="xtick_9">
     <g id="line2d_15">
      <g>
       <use xlink:href="#ma80022f096" x="608.531186" y="289.077656" style="stroke: #000000; stroke-width: 0.8"/>
      </g>
     </g>
     <g id="text_18">
      <text style="font-size: 10px; font-family: 'DejaVu Sans', 'Bitstream Vera Sans', 'Computer Modern Sans Serif', 'Lucida Grande', 'Verdana', 'Geneva', 'Lucid', 'Arial', 'Helvetica', 'Avant Garde', sans-serif; text-anchor: middle" x="608.531186" y="303.675312" transform="rotate(-0 608.531186 303.675312)">160</text>
     </g>
    </g>
    <g id="xtick_10">
     <g id="line2d_16">
      <g>
       <use xlink:href="#ma80022f096" x="669.649588" y="289.077656" style="stroke: #000000; stroke-width: 0.8"/>
      </g>
     </g>
     <g id="text_19">
      <text style="font-size: 10px; font-family: 'DejaVu Sans', 'Bitstream Vera Sans', 'Computer Modern Sans Serif', 'Lucida Grande', 'Verdana', 'Geneva', 'Lucid', 'Arial', 'Helvetica', 'Avant Garde', sans-serif; text-anchor: middle" x="669.649588" y="303.675312" transform="rotate(-0 669.649588 303.675312)">180</text>
     </g>
    </g>
    <g id="xtick_11">
     <g id="line2d_17">
      <g>
       <use xlink:href="#ma80022f096" x="730.76799" y="289.077656" style="stroke: #000000; stroke-width: 0.8"/>
      </g>
     </g>
     <g id="text_20">
      <text style="font-size: 10px; font-family: 'DejaVu Sans', 'Bitstream Vera Sans', 'Computer Modern Sans Serif', 'Lucida Grande', 'Verdana', 'Geneva', 'Lucid', 'Arial', 'Helvetica', 'Avant Garde', sans-serif; text-anchor: middle" x="730.76799" y="303.675312" transform="rotate(-0 730.76799 303.675312)">200</text>
     </g>
    </g>
    <g id="xtick_12">
     <g id="line2d_18">
      <g>
       <use xlink:href="#ma80022f096" x="791.886392" y="289.077656" style="stroke: #000000; stroke-width: 0.8"/>
      </g>
     </g>
     <g id="text_21">
      <text style="font-size: 10px; font-family: 'DejaVu Sans', 'Bitstream Vera Sans', 'Computer Modern Sans Serif', 'Lucida Grande', 'Verdana', 'Geneva', 'Lucid', 'Arial', 'Helvetica', 'Avant Garde', sans-serif; text-anchor: middle" x="791.886392" y="303.675312" transform="rotate(-0 791.886392 303.675312)">220</text>
     </g>
    </g>
    <g id="xtick_13">
     <g id="line2d_19">
      <g>
       <use xlink:href="#ma80022f096" x="853.004794" y="289.077656" style="stroke: #000000; stroke-width: 0.8"/>
      </g>
     </g>
     <g id="text_22">
      <text style="font-size: 10px; font-family: 'DejaVu Sans', 'Bitstream Vera Sans', 'Computer Modern Sans Serif', 'Lucida Grande', 'Verdana', 'Geneva', 'Lucid', 'Arial', 'Helvetica', 'Avant Garde', sans-serif; text-anchor: middle" x="853.004794" y="303.675312" transform="rotate(-0 853.004794 303.675312)">240</text>
     </g>
    </g>
    <g id="xtick_14">
     <g id="line2d_20">
      <g>
       <use xlink:href="#ma80022f096" x="914.123197" y="289.077656" style="stroke: #000000; stroke-width: 0.8"/>
      </g>
     </g>
     <g id="text_23">
      <text style="font-size: 10px; font-family: 'DejaVu Sans', 'Bitstream Vera Sans', 'Computer Modern Sans Serif', 'Lucida Grande', 'Verdana', 'Geneva', 'Lucid', 'Arial', 'Helvetica', 'Avant Garde', sans-serif; text-anchor: middle" x="914.123197" y="303.675312" transform="rotate(-0 914.123197 303.675312)">260</text>
     </g>
    </g>
    <g id="text_24">
     <text style="font-size: 10px; font-family: 'DejaVu Sans', 'Bitstream Vera Sans', 'Computer Modern Sans Serif', 'Lucida Grande', 'Verdana', 'Geneva', 'Lucid', 'Arial', 'Helvetica', 'Avant Garde', sans-serif; text-anchor: middle" x="704.792669" y="317.676094" transform="rotate(-0 704.792669 317.676094)">channel</text>
    </g>
   </g>
   <g id="matplotlib.axis_4">
    <g id="ytick_6">
     <g id="line2d_21">
      <g>
       <use xlink:href="#mb5c6c86160" x="489.655894" y="267.781311" style="stroke: #000000; stroke-width: 0.8"/>
      </g>
     </g>
    </g>
    <g id="ytick_7">
     <g id="line2d_22">
      <g>
       <use xlink:href="#mb5c6c86160" x="489.655894" y="219.608419" style="stroke: #000000; stroke-width: 0.8"/>
      </g>
     </g>
    </g>
    <g id="ytick_8">
     <g id="line2d_23">
      <g>
       <use xlink:href="#mb5c6c86160" x="489.655894" y="171.435528" style="stroke: #000000; stroke-width: 0.8"/>
      </g>
     </g>
    </g>
    <g id="ytick_9">
     <g id="line2d_24">
      <g>
       <use xlink:href="#mb5c6c86160" x="489.655894" y="123.262636" style="stroke: #000000; stroke-width: 0.8"/>
      </g>
     </g>
    </g>
    <g id="ytick_10">
     <g id="line2d_25">
      <g>
       <use xlink:href="#mb5c6c86160" x="489.655894" y="75.089745" style="stroke: #000000; stroke-width: 0.8"/>
      </g>
     </g>
    </g>
   </g>
   <g id="line2d_26">
    <path d="M 489.655894 267.781311 
L 919.929445 267.781311 
" clip-path="url(#pf1781fd08c)" style="fill: none; stroke: #333333; stroke-width: 0.8; stroke-linecap: square"/>
   </g>
   <g id="patch_264">
    <path d="M 489.655894 289.077656 
L 489.655894 66.329422 
" style="fill: none; stroke: #000000; stroke-width: 0.8; stroke-linejoin: miter; stroke-linecap: square"/>
   </g>
   <g id="patch_265">
    <path d="M 919.929445 289.077656 
L 919.929445 66.329422 
" style="fill: none; stroke: #000000; stroke-width: 0.8; stroke-linejoin: miter; stroke-linecap: square"/>
   </g>
   <g id="patch_266">
    <path d="M 489.655894 289.077656 
L 919.929445 289.077656 
" style="fill: none; stroke: #000000; stroke-width: 0.8; stroke-linejoin: miter; stroke-linecap: square"/>
   </g>
   <g id="patch_267">
    <path d="M 489.655894 66.329422 
L 919.929445 66.329422 
" style="fill: none; stroke: #000000; stroke-width: 0.8; stroke-linejoin: miter; stroke-linecap: square"/>
   </g>
   <g id="text_25">
    <text style="font-size: 8.5px; font-family: 'DejaVu Sans', 'Bitstream Vera Sans', 'Computer Modern Sans Serif', 'Lucida Grande', 'Verdana', 'Geneva', 'Lucid', 'Arial', 'Helvetica', 'Avant Garde', sans-serif; fill: #333333" transform="translate(502.564101 84.776336)">good mean +5.0</text>
    <text style="font-size: 8.5px; font-family: 'DejaVu Sans', 'Bitstream Vera Sans', 'Computer Modern Sans Serif', 'Lucida Grande', 'Verdana', 'Geneva', 'Lucid', 'Arial', 'Helvetica', 'Avant Garde', sans-serif; fill: #333333" transform="translate(502.564101 94.97866)">hot ch (z&gt;4): 31</text>
    <text style="font-size: 8.5px; font-family: 'DejaVu Sans', 'Bitstream Vera Sans', 'Computer Modern Sans Serif', 'Lucida Grande', 'Verdana', 'Geneva', 'Lucid', 'Arial', 'Helvetica', 'Avant Garde', sans-serif; fill: #333333" transform="translate(502.564101 105.180984)">disconnected-dead mean +28.4</text>
    <text style="font-size: 8.5px; font-family: 'DejaVu Sans', 'Bitstream Vera Sans', 'Computer Modern Sans Serif', 'Lucida Grande', 'Verdana', 'Geneva', 'Lucid', 'Arial', 'Helvetica', 'Avant Garde', sans-serif; fill: #333333" transform="translate(502.564101 115.383308)">(orange = ch142 hot-excluded)</text>
   </g>
   <g id="text_26">
    <text style="font-size: 11px; font-family: 'DejaVu Sans', 'Bitstream Vera Sans', 'Computer Modern Sans Serif', 'Lucida Grande', 'Verdana', 'Geneva', 'Lucid', 'Arial', 'Helvetica', 'Avant Garde', sans-serif; text-anchor: middle" x="704.792669" y="60.329422" transform="rotate(-0 704.792669 60.329422)">LEC (128–255)</text>
   </g>
  </g>
  <g id="text_27">
   <text style="font-size: 10.5px; font-family: 'DejaVu Sans', 'Bitstream Vera Sans', 'Computer Modern Sans Serif', 'Lucida Grande', 'Verdana', 'Geneva', 'Lucid', 'Arial', 'Helvetica', 'Avant Garde', sans-serif; text-anchor: middle" x="468" y="14.602359" transform="rotate(-0 468 14.602359)">Is the 50 Hz pickup gradient LEC-only?  dHPC (left): flat, ~0, no hot channels, dead ch clean.  LEC (right): rises toward the dead blocks (128–135, 224–255).</text>
  </g>
 </g>
 <defs>
  <clipPath id="paf1ce140cb">
   <rect x="45.082344" y="66.329422" width="430.27355" height="222.748234"/>
  </clipPath>
  <clipPath id="pf1781fd08c">
   <rect x="489.655894" y="66.329422" width="430.27355" height="222.748234"/>
  </clipPath>
 </defs>
</svg>
